<svg xmlns="http://www.w3.org/2000/svg" style="display: none;">

  <symbol id="phone" viewBox="0 0 16 17">
    <path d="M0.5 1.46C0.31 1.48 0.16 1.56 0.05 1.71C-0.05 1.85 -0.1 2.01 -0.1 2.18C-0.1 4.8 0.56 7.24 1.88 9.49C3.18 11.68 4.93 13.42 7.13 14.71C9.4 16.02 11.85 16.68 14.49 16.68C14.66 16.68 14.82 16.62 14.96 16.52C15.11 16.42 15.19 16.27 15.21 16.08L15.97 12.83C16.01 12.67 15.99 12.5 15.91 12.33C15.82 12.17 15.7 12.05 15.53 11.99L12.01 10.49C11.86 10.43 11.71 10.42 11.55 10.46C11.39 10.5 11.25 10.58 11.13 10.71L9.58 12.58C8.35 12.02 7.25 11.26 6.3 10.3C5.34 9.34 4.58 8.26 4.02 7.05L5.9 5.52C6.03 5.4 6.11 5.25 6.16 5.1C6.2 4.94 6.19 4.79 6.12 4.65L4.62 1.15C4.55 0.98 4.44 0.85 4.27 0.77C4.1 0.69 3.93 0.67 3.77 0.71L0.5 1.46Z" />
  </symbol>

  <symbol id="email" viewBox="0 0 17 13">
    <path d="M15.41 0.25C15.85 0.25 16.23 0.4 16.54 0.71C16.85 1.02 17 1.4 17 1.84L17 11.41C17 11.85 16.85 12.23 16.54 12.54C16.23 12.85 15.85 13 15.41 13L1.59 13C1.15 13 0.77 12.85 0.46 12.54C0.15 12.23 0 11.85 0 11.41L0 1.84C0 1.4 0.15 1.02 0.46 0.71C0.77 0.4 1.15 0.25 1.59 0.25L15.41 0.25ZM15.41 1.84L1.59 1.84L1.59 3.21C2.37 3.82 3.86 5 6.08 6.72L6.37 6.99C6.82 7.37 7.17 7.63 7.44 7.79C7.86 8.07 8.21 8.22 8.5 8.22C8.79 8.22 9.14 8.07 9.56 7.79C9.83 7.63 10.18 7.37 10.62 6.99L10.92 6.72C13.14 5.02 14.63 3.85 15.41 3.21L15.41 1.84ZM1.59 11.41L15.41 11.41L15.41 5.23L11.55 8.29C11 8.75 10.55 9.08 10.19 9.28C9.6 9.64 9.03 9.81 8.5 9.81C7.97 9.81 7.39 9.64 6.77 9.28C6.44 9.08 5.99 8.75 5.41 8.29L1.59 5.23L1.59 11.41Z" />
  </symbol>

    <symbol id="fb" viewBox="0 0 10 19">
    <path d="M2.71 18.25L6.01 18.25L6.01 10.2L8.58 10.2L9 7L6.01 7L6.01 4.79C6.01 4.27 6.11 3.89 6.29 3.66C6.53 3.38 6.96 3.24 7.59 3.24L9.28 3.24L9.28 0.39C8.65 0.3 7.83 0.25 6.82 0.25C5.58 0.25 4.58 0.62 3.83 1.36C3.08 2.1 2.71 3.13 2.71 4.47L2.71 7L0 7L0 10.2L2.71 10.2L2.71 18.25Z" />
  </symbol>

    <symbol id="inst" viewBox="0 0 19 19">
    <path d="M9.19 4.41C10.04 4.41 10.82 4.62 11.55 5.04C12.27 5.47 12.84 6.04 13.27 6.77C13.69 7.49 13.9 8.28 13.9 9.12C13.9 9.97 13.69 10.76 13.27 11.48C12.84 12.21 12.27 12.78 11.55 13.21C10.82 13.63 10.04 13.84 9.19 13.84C8.34 13.84 7.55 13.63 6.83 13.21C6.1 12.78 5.53 12.21 5.11 11.48C4.68 10.76 4.47 9.97 4.47 9.12C4.47 8.28 4.68 7.49 5.11 6.77C5.53 6.04 6.1 5.47 6.83 5.04C7.55 4.62 8.34 4.41 9.19 4.41ZM9.19 12.2C10.04 12.2 10.76 11.9 11.36 11.3C11.96 10.7 12.26 9.97 12.26 9.12C12.26 8.28 11.96 7.55 11.36 6.95C10.76 6.35 10.04 6.05 9.19 6.05C8.34 6.05 7.62 6.35 7.01 6.95C6.41 7.55 6.11 8.28 6.11 9.12C6.11 9.97 6.41 10.7 7.01 11.3C7.62 11.9 8.34 12.2 9.19 12.2ZM15.22 4.2C15.22 3.9 15.11 3.64 14.89 3.42C14.67 3.21 14.41 3.1 14.11 3.1C13.81 3.1 13.55 3.21 13.33 3.42C13.11 3.64 13 3.9 13 4.2C13 4.5 13.11 4.76 13.33 4.98C13.55 5.2 13.81 5.31 14.11 5.31C14.41 5.31 14.66 5.2 14.87 4.98C15.07 4.76 15.19 4.5 15.22 4.2ZM18.33 5.31C18.36 6.08 18.37 7.35 18.37 9.12C18.37 10.9 18.35 12.18 18.31 12.96C18.27 13.74 18.16 14.42 17.96 14.99C17.72 15.67 17.34 16.27 16.84 16.77C16.33 17.28 15.74 17.66 15.05 17.9C14.48 18.09 13.8 18.21 13.02 18.25C12.24 18.29 10.96 18.31 9.19 18.31C7.41 18.31 6.13 18.29 5.35 18.25C4.57 18.21 3.9 18.08 3.32 17.86C2.64 17.64 2.04 17.28 1.54 16.77C1.03 16.27 0.66 15.67 0.41 14.99C0.22 14.42 0.1 13.74 0.06 12.96C0.02 12.18 0 10.9 0 9.12C0 7.35 0.02 6.07 0.06 5.29C0.1 4.51 0.22 3.83 0.41 3.26C0.66 2.58 1.03 1.98 1.54 1.48C2.04 0.97 2.64 0.59 3.32 0.35C3.9 0.16 4.57 0.04 5.35 0C6.13 -0.04 7.41 -0.06 9.19 -0.06C10.96 -0.06 12.24 -0.04 13.02 0C13.8 0.04 14.48 0.16 15.05 0.35C15.74 0.59 16.33 0.97 16.84 1.48C17.34 1.98 17.72 2.58 17.96 3.26C18.16 3.83 18.28 4.52 18.33 5.31ZM16.37 14.54C16.53 14.07 16.64 13.34 16.69 12.32C16.72 11.72 16.73 10.87 16.73 9.78L16.73 8.47C16.73 7.35 16.72 6.5 16.69 5.93C16.64 4.89 16.53 4.15 16.37 3.71C16.04 2.86 15.45 2.28 14.6 1.95C14.16 1.78 13.43 1.67 12.39 1.62C11.79 1.59 10.94 1.58 9.84 1.58L8.53 1.58C7.44 1.58 6.59 1.59 5.99 1.62C4.98 1.67 4.24 1.78 3.77 1.95C2.93 2.28 2.34 2.86 2.01 3.71C1.85 4.15 1.74 4.89 1.68 5.93C1.65 6.53 1.64 7.37 1.64 8.47L1.64 9.78C1.64 10.87 1.65 11.72 1.68 12.32C1.74 13.34 1.85 14.07 2.01 14.54C2.37 15.39 2.95 15.97 3.77 16.3C4.24 16.47 4.98 16.58 5.99 16.63C6.59 16.66 7.44 16.67 8.53 16.67L9.84 16.67C10.96 16.67 11.81 16.66 12.39 16.63C13.43 16.58 14.16 16.47 14.6 16.3C15.45 15.95 16.04 15.36 16.37 14.54Z" />
  </symbol>

    <symbol id="skype" viewBox="0 0 18 19">
    <path d="M16.6 11.22C17.2 12 17.5 12.89 17.5 13.87C17.5 14.66 17.3 15.39 16.91 16.06C16.52 16.74 15.99 17.27 15.31 17.66C14.64 18.05 13.91 18.25 13.12 18.25C12.14 18.25 11.25 17.95 10.47 17.35C9.9 17.46 9.32 17.51 8.75 17.51C7.29 17.51 5.95 17.15 4.73 16.43C3.5 15.72 2.53 14.75 1.82 13.52C1.1 12.3 0.74 10.96 0.74 9.5C0.74 8.95 0.79 8.38 0.9 7.78C0.3 7 0 6.11 0 5.12C0 4.34 0.2 3.61 0.59 2.94C0.98 2.26 1.51 1.73 2.19 1.34C2.86 0.95 3.59 0.75 4.37 0.75C5.36 0.75 6.25 1.05 7.03 1.65C7.6 1.54 8.18 1.49 8.75 1.49C10.21 1.49 11.55 1.85 12.77 2.57C14 3.28 14.97 4.25 15.68 5.48C16.4 6.7 16.76 8.04 16.76 9.5C16.76 10.05 16.71 10.62 16.6 11.22ZM8.98 14.77C10.16 14.77 11.16 14.5 11.99 13.95C12.9 13.33 13.36 12.48 13.36 11.41C13.36 10.53 12.97 9.81 12.19 9.27C11.64 8.9 10.85 8.6 9.8 8.37L9.18 8.25C8.37 8.04 7.85 7.89 7.62 7.78C7.28 7.62 7.11 7.39 7.11 7.08C7.11 6.51 7.66 6.22 8.75 6.22C9.19 6.22 9.58 6.3 9.92 6.45C10.1 6.56 10.34 6.73 10.62 6.96C10.81 7.17 10.96 7.3 11.09 7.35C11.28 7.46 11.47 7.51 11.68 7.51C12.04 7.51 12.34 7.39 12.56 7.16C12.78 6.92 12.89 6.62 12.89 6.26C12.89 5.63 12.43 5.11 11.52 4.7C10.66 4.3 9.67 4.11 8.54 4.11C7.4 4.11 6.45 4.34 5.66 4.81C4.75 5.39 4.3 6.21 4.3 7.27C4.3 8 4.48 8.59 4.84 9.03C5.13 9.42 5.6 9.73 6.25 9.97C6.64 10.12 7.3 10.31 8.24 10.52L9.02 10.71C9.6 10.84 9.96 10.96 10.12 11.06C10.4 11.22 10.55 11.45 10.55 11.77C10.55 12.08 10.39 12.33 10.08 12.53C9.77 12.72 9.36 12.82 8.85 12.82C8.34 12.82 7.89 12.7 7.5 12.47C7.27 12.34 6.98 12.1 6.64 11.77C6.41 11.51 6.22 11.34 6.09 11.26C5.89 11.13 5.66 11.06 5.43 11.06C5.07 11.06 4.79 11.17 4.59 11.39C4.39 11.62 4.3 11.9 4.3 12.23C4.3 12.7 4.51 13.13 4.92 13.52C5.34 13.91 5.91 14.22 6.64 14.44C7.37 14.66 8.15 14.77 8.98 14.77Z" />
  </symbol>

   <symbol id="tw" viewBox="0 0 18 15">
    <path d="M16.14 3.59C16.86 3.05 17.48 2.41 18 1.66C17.3 1.96 16.59 2.16 15.89 2.26C16.69 1.77 17.23 1.09 17.51 0.22C16.78 0.64 16 0.93 15.15 1.1C14.8 0.75 14.4 0.46 13.94 0.25C13.48 0.04 12.98 -0.06 12.45 -0.06C11.79 -0.06 11.18 0.1 10.62 0.43C10.05 0.76 9.61 1.21 9.28 1.78C8.95 2.36 8.79 2.97 8.79 3.63C8.79 3.91 8.81 4.19 8.86 4.47C7.36 4.4 5.95 4.03 4.62 3.35C3.3 2.67 2.18 1.75 1.27 0.61C0.91 1.19 0.74 1.81 0.74 2.45C0.74 3.1 0.89 3.69 1.2 4.23C1.5 4.77 1.9 5.21 2.39 5.56C1.8 5.54 1.25 5.37 0.74 5.07L0.74 5.14C0.74 6.01 1.02 6.78 1.58 7.46C2.14 8.14 2.85 8.57 3.69 8.76C3.36 8.83 3.04 8.87 2.71 8.87C2.5 8.87 2.27 8.86 2.04 8.83C2.27 9.56 2.7 10.16 3.32 10.64C3.94 11.12 4.66 11.36 5.48 11.36C4.12 12.42 2.59 12.95 0.88 12.95C0.55 12.95 0.26 12.93 0 12.91C1.71 14.01 3.6 14.56 5.66 14.56C7.82 14.56 9.73 14.01 11.39 12.91C12.91 11.93 14.1 10.6 14.94 8.94C15.76 7.37 16.17 5.74 16.17 4.05C16.17 3.84 16.16 3.69 16.14 3.59Z" />
  </symbol>

</svg>
